<svg width="22" height="22" viewBox="0 0 22 22" fill="none" xmlns="http://www.w3.org/2000/svg">
<g clip-path="url(#clip0_419_5363)">
<path d="M17.3481 4.00182H16.4734V3.12716C16.4734 2.6461 16.0798 2.2525 15.5988 2.2525C15.1177 2.2525 14.7241 2.6461 14.7241 3.12716V4.00182H7.72682V3.12716C7.72682 2.6461 7.33322 2.2525 6.85216 2.2525C6.37109 2.2525 5.9775 2.6461 5.9775 3.12716V4.00182H5.10284C4.13196 4.00182 3.36226 4.78902 3.36226 5.75114L3.35352 17.9964C3.35352 18.9585 4.13196 19.7457 5.10284 19.7457H17.3481C18.3102 19.7457 19.0974 18.9585 19.0974 17.9964V5.75114C19.0974 4.78902 18.3102 4.00182 17.3481 4.00182ZM17.3481 17.1217C17.3481 17.6028 16.9545 17.9964 16.4734 17.9964H5.9775C5.49643 17.9964 5.10284 17.6028 5.10284 17.1217V8.37512H17.3481V17.1217ZM6.85216 10.1244H8.60148V11.8738H6.85216V10.1244ZM10.3508 10.1244H12.1001V11.8738H10.3508V10.1244ZM13.8494 10.1244H15.5988V11.8738H13.8494V10.1244Z" fill="#0097b2"/>
</g>
<defs>
<clipPath id="clip0_419_5363">
<rect width="20.9918" height="20.9918" fill="white" transform="translate(0.729492 0.503052)"/>
</clipPath>
</defs>
</svg>